# xmcd
#
# Track frame offsets: 
#        150
#        19729
#        37809
#        54732
#        73839
#        99274
#        116688
#        141548
#        159438
#        177693
#        194615
#        215712
#        233109
#        250087
#        268277
#
# Disc length: 3797 seconds
#
# Revision: 0
# Processed by: cddbd v1.5.2PL0 Copyright (c) Steve Scherf et al.
# Submitted via: ExactAudioCopy v0.99pb5
#
DISCID=e60ed30f
DTITLE=Sálin hans Jóns míns - Hér er draumurinn
DYEAR=2009
DGENRE=
TTITLE0=Á tjá og tundir
TTITLE1=Getur verið?
TTITLE2=Auður
TTITLE3=Brostið hjarta
TTITLE4=Láttu mig vera
TTITLE5=Krókurinn
TTITLE6=Holdið and andinn
TTITLE7=Englar
TTITLE8=Okkar nótt
TTITLE9=Ekki nema von
TTITLE10=Á nýjum stað
TTITLE11=Allt eins og það á að vera
TTITLE12=Aldrei liðið betur
TTITLE13=Þú færð bros
TTITLE14=Gott að vera til
EXTD=
EXTT0=
EXTT1=
EXTT2=
EXTT3=
EXTT4=
EXTT5=
EXTT6=
EXTT7=
EXTT8=
EXTT9=
EXTT10=
EXTT11=
EXTT12=
EXTT13=
EXTT14=
PLAYORDER=
